<?xml version="1.0" encoding="UTF-8" standalone="no"?>
<!-- Created with Inkscape (http://www.inkscape.org/) -->

<svg
   width="114"
   height="52"
   viewBox="0 0 114 52"
   version="1.1"
   id="svg1"
   xml:space="preserve"
   inkscape:export-filename="temp.png"
   inkscape:export-xdpi="96"
   inkscape:export-ydpi="96"
   inkscape:version="1.3 (0e150ed6c4, 2023-07-21)"
   sodipodi:docname="ButtonBorder.svg"
   xmlns:inkscape="http://www.inkscape.org/namespaces/inkscape"
   xmlns:sodipodi="http://sodipodi.sourceforge.net/DTD/sodipodi-0.dtd"
   xmlns:xlink="http://www.w3.org/1999/xlink"
   xmlns="http://www.w3.org/2000/svg"
   xmlns:svg="http://www.w3.org/2000/svg"
   xmlns:rdf="http://www.w3.org/1999/02/22-rdf-syntax-ns#"
   xmlns:cc="http://creativecommons.org/ns#"
   xmlns:dc="http://purl.org/dc/elements/1.1/"><title
     id="title8">MSN TV 2 Button</title><sodipodi:namedview
     id="namedview1"
     pagecolor="#505050"
     bordercolor="#ffffff"
     borderopacity="1"
     inkscape:showpageshadow="0"
     inkscape:pageopacity="0"
     inkscape:pagecheckerboard="1"
     inkscape:deskcolor="#505050"
     inkscape:document-units="px"
     showgrid="true"
     inkscape:zoom="4"
     inkscape:cx="60.875"
     inkscape:cy="3.75"
     inkscape:window-width="1287"
     inkscape:window-height="747"
     inkscape:window-x="-4"
     inkscape:window-y="-4"
     inkscape:window-maximized="1"
     inkscape:current-layer="layer2"><inkscape:grid
       id="grid1"
       units="px"
       originx="0"
       originy="0"
       spacingx="1"
       spacingy="1"
       empcolor="#0099e5"
       empopacity="0.30196078"
       color="#0099e5"
       opacity="0.14901961"
       empspacing="5"
       dotted="false"
       gridanglex="30"
       gridanglez="30"
       visible="true" /></sodipodi:namedview><defs
     id="defs1"><linearGradient
       id="linearGradient7"
       inkscape:collect="always"><stop
         style="stop-color:#f9f9f9;stop-opacity:0.952941;"
         offset="0"
         id="stop7" /><stop
         style="stop-color:#f9f9f9;stop-opacity:0.31999999;"
         offset="1"
         id="stop8" /></linearGradient><linearGradient
       id="linearGradient3"
       inkscape:collect="always"><stop
         style="stop-color:#8a9bae;stop-opacity:0.65098041;"
         offset="0"
         id="stop3" /><stop
         style="stop-color:#d6e4f4;stop-opacity:0.65098041;"
         offset="1"
         id="stop4" /></linearGradient><linearGradient
       inkscape:collect="always"
       xlink:href="#linearGradient3"
       id="linearGradient4"
       x1="24.636362"
       y1="5.8333335"
       x2="24.636362"
       y2="24.166666"
       gradientUnits="userSpaceOnUse"
       gradientTransform="matrix(1.2222223,0,0,1.2,-5.1111111,-5.0000004)" /><filter
       inkscape:collect="always"
       style="color-interpolation-filters:sRGB"
       id="filter4"
       x="-0.047841767"
       y="-0.54308098"
       width="1.0956835"
       height="2.086162"><feGaussianBlur
         inkscape:collect="always"
         stdDeviation="1.015625"
         id="feGaussianBlur4" /></filter><filter
       inkscape:collect="always"
       style="color-interpolation-filters:sRGB"
       id="filter6"
       x="-0.049908088"
       y="-0.15083333"
       width="1.0998162"
       height="1.3016667"><feGaussianBlur
         inkscape:collect="always"
         stdDeviation="1.0605469"
         id="feGaussianBlur6" /></filter><linearGradient
       inkscape:collect="always"
       xlink:href="#linearGradient7"
       id="linearGradient8"
       x1="30"
       y1="2"
       x2="30"
       y2="8.000001"
       gradientUnits="userSpaceOnUse"
       gradientTransform="matrix(0.4999999,0,0,0.83898274,1.9572297e-6,-5.1154624)" /></defs><g
     inkscape:label="Layer 1"
     inkscape:groupmode="layer"
     id="layer1" /><g
     inkscape:groupmode="layer"
     id="layer2"
     inkscape:label="Layer 2"><rect
       style="fill:url(#linearGradient4);fill-opacity:1;stroke:none;stroke-width:1.99999;stroke-linecap:square;stroke-dasharray:none;stroke-opacity:1"
       id="rect3"
       width="110.00002"
       height="48.000011"
       x="1.9999964"
       y="1.999997" /><path
       d="m 3.0253908,1.3867187 c 0.017009,0.1684935 0.042979,0.33501 0.076172,0.4980469 0.033193,0.163037 0.074495,0.3237136 0.1230469,0.4804688 0.048552,0.1567552 0.1048829,0.3093361 0.1679687,0.4589844 0.063086,0.1496482 0.13219,0.2957838 0.2089844,0.4375 0.076794,0.1417161 0.1603224,0.2791505 0.25,0.4121093 0.089678,0.1329589 0.1853736,0.2613893 0.2871094,0.3847656 0.1017357,0.1233764 0.209297,0.2425002 0.3222656,0.3554688 0.1129686,0.1129686 0.2320924,0.2205299 0.3554687,0.3222656 0.1233764,0.1017358 0.2518068,0.1974318 0.3847657,0.2871094 0.1329588,0.089678 0.2703932,0.1732056 0.4121093,0.25 0.1417162,0.076794 0.2878518,0.1458985 0.4375,0.2089844 0.1496483,0.063086 0.3022292,0.1194165 0.4589844,0.1679687 0.1567552,0.048552 0.3174318,0.089854 0.4804688,0.1230469 0.1630369,0.033193 0.3295534,0.059163 0.4980468,0.076172 C 7.6567747,5.8666186 7.8268752,5.875 8,5.875 h 41 c 0.173125,0 0.343225,-0.00838 0.511719,-0.025391 0.168493,-0.017009 0.33501,-0.042979 0.498047,-0.076172 0.163037,-0.033193 0.323713,-0.074495 0.480468,-0.1230469 0.156756,-0.048552 0.309336,-0.1048829 0.458985,-0.1679687 0.149648,-0.063086 0.295784,-0.13219 0.4375,-0.2089844 0.141716,-0.076794 0.27915,-0.1603224 0.412109,-0.25 0.132959,-0.089678 0.261389,-0.1853736 0.384766,-0.2871094 0.123376,-0.1017357 0.2425,-0.209297 0.355468,-0.3222656 0.112969,-0.1129686 0.22053,-0.2320924 0.322266,-0.3554688 0.101736,-0.1233763 0.197432,-0.2518067 0.287109,-0.3847656 0.08968,-0.1329588 0.173206,-0.2703932 0.25,-0.4121093 0.07679,-0.1417162 0.145899,-0.2878518 0.208985,-0.4375 0.06309,-0.1496483 0.119416,-0.3022292 0.167969,-0.4589844 0.04855,-0.1567552 0.08985,-0.3174318 0.123046,-0.4804688 0.03319,-0.1630369 0.05396,-0.33016 0.07617,-0.4980469 z"
       style="display:none;opacity:1;fill:#f4f6f7;fill-opacity:0.952941;stroke:#2c2c74;stroke-width:0;stroke-linecap:square;filter:url(#filter4)"
       id="path4"
       sodipodi:nodetypes="csssssssssssssssssssssssssssssscc"
       transform="matrix(1,0,0,1.1347518,0,-1.1201241)" /><rect
       style="opacity:1;fill:url(#linearGradient8);fill-opacity:0.952941;stroke:none;stroke-width:1;stroke-linecap:square;stroke-dasharray:none;stroke-opacity:1;filter:url(#filter6)"
       id="rect6"
       width="51"
       height="16.875"
       x="3"
       y="-11.875"
       ry="4.875"
       rx="2.2980971"
       transform="matrix(2.0000004,0,0,1.1919196,-3.9059754e-6,6.0972194)" /><rect
       style="fill:none;fill-opacity:1;stroke:#322f2f;stroke-width:1.99999;stroke-linecap:square;stroke-dasharray:none;stroke-opacity:1"
       id="rect3-8"
       width="112.00001"
       height="50.000008"
       x="0.99999624"
       y="0.99999684"
       ry="1.0000001" /></g><metadata
     id="metadata8"><rdf:RDF><cc:Work
         rdf:about=""><dc:title>MSN TV 2 Button</dc:title><dc:date>11/2/2023</dc:date><dc:creator><cc:Agent><dc:title>SKCro</dc:title></cc:Agent></dc:creator><dc:rights><cc:Agent><dc:title>Microsoft</dc:title></cc:Agent></dc:rights><dc:source>MSN TV 2</dc:source><dc:subject><rdf:Bag><rdf:li>button</rdf:li></rdf:Bag></dc:subject><dc:description>A vector recreation of the button used for MSN TV 2's pages.</dc:description></cc:Work></rdf:RDF></metadata></svg>
